HIERARCHY
ROOT Hips
{
    OFFSET 0.000000 0.000000 0.000000
    CHANNELS 6 Xposition Yposition Zposition Zrotation Xrotation Yrotation
    JOINT Spine
    {
        OFFSET -0.000000 7.246840 0.000000
        CHANNELS 3 Zrotation Xrotation Yrotation
        JOINT Spine1
        {
            OFFSET -0.000000 20.289354 0.000000
            CHANNELS 3 Zrotation Xrotation Yrotation
            JOINT Neck
            {
                OFFSET -0.000000 20.206032 1.836912
                CHANNELS 3 Zrotation Xrotation Yrotation
                JOINT Head
                {
                    OFFSET -0.000000 12.372654 -1.767522
                    CHANNELS 3 Zrotation Xrotation Yrotation
                    End Site
                    {
                        OFFSET -0.000000 22.094025 0.000000
                    }
                }
            }
            JOINT LeftShoulder
            {
                OFFSET 3.465871 17.201674 -0.568930
                CHANNELS 3 Zrotation Xrotation Yrotation
                JOINT LeftArm
                {
                    OFFSET 14.070313 0.000000 0.000000
                    CHANNELS 3 Zrotation Xrotation Yrotation
                    JOINT LeftForeArm
                    {
                        OFFSET 26.549477 0.000000 0.000000
                        CHANNELS 3 Zrotation Xrotation Yrotation
                        JOINT LeftHand
                        {
                            OFFSET 18.880413 0.000000 0.000000
                            CHANNELS 3 Zrotation Xrotation Yrotation
                            End Site
                            {
                                OFFSET 13.256415 0.000000 0.000000
                            }
                        }
                    }
                }
            }
            JOINT RightShoulder
            {
                OFFSET -3.526370 17.201674 -0.568930
                CHANNELS 3 Zrotation Xrotation Yrotation
                JOINT RightArm
                {
                    OFFSET -14.070313 0.000000 0.000000
                    CHANNELS 3 Zrotation Xrotation Yrotation
                    JOINT RightForeArm
                    {
                        OFFSET -26.549477 0.000000 0.000000
                        CHANNELS 3 Zrotation Xrotation Yrotation
                        JOINT RightHand
                        {
                            OFFSET -18.880413 0.000000 0.000000
                            CHANNELS 3 Zrotation Xrotation Yrotation
                            End Site
                            {
                                OFFSET -13.256415 0.000000 0.000000
                            }
                        }
                    }
                }
            }
        }
    }
    JOINT LeftUpLeg
    {
        OFFSET 8.837609 0.000000 0.000000
        CHANNELS 3 Zrotation Xrotation Yrotation
        JOINT LeftLeg
        {
            OFFSET -0.000000 -41.345005 0.000000
            CHANNELS 3 Zrotation Xrotation Yrotation
            JOINT LeftFoot
            {
                OFFSET -0.000000 -35.500874 0.000000
                CHANNELS 3 Zrotation Xrotation Yrotation
                JOINT LeftToeBase
                {
                    OFFSET -0.000000 -5.744446 13.256415
                    CHANNELS 3 Zrotation Xrotation Yrotation
                    End Site
                    {
                        OFFSET -0.000000 0.000000 3.535044
                    }
                }
            }
        }
    }
    JOINT RightUpLeg
    {
        OFFSET -8.837609 0.000000 0.000000
        CHANNELS 3 Zrotation Xrotation Yrotation
        JOINT RightLeg
        {
            OFFSET -0.000000 -41.345005 0.000000
            CHANNELS 3 Zrotation Xrotation Yrotation
            JOINT RightFoot
            {
                OFFSET -0.000000 -35.500874 0.000000
                CHANNELS 3 Zrotation Xrotation Yrotation
                JOINT RightToeBase
                {
                    OFFSET -0.000000 -5.744446 13.256415
                    CHANNELS 3 Zrotation Xrotation Yrotation
                    End Site
                    {
                        OFFSET -0.000000 0.000000 3.535044
                    }
                }
            }
        }
    }
}
MOTION
Frames:    6
Frame Time:    0.010000
9.846328    9.796894    -37.748386    11.799175    -36.740238    4.386473    1.379184    24.949471    -3.420088    -8.023439    7.032381    -2.621105    17.529219    54.922871    -2.015988    -30.462736    -42.767700    -10.314143    26.891712    4.135626    2.259859    -34.574203    -19.557236    -3.309934    11.290129    -27.466465    -5.269500    29.826309    -27.557671    -2.343163    -19.137079    -1.033929    9.911916    2.798910    -24.406460    17.610865    -4.820598    -7.100029    -9.464924    -37.191265    -10.069185    7.725828    7.372259    -45.015083    2.041377    -10.476066    -10.194279    51.288776    40.604973    24.634882    -51.839462    -0.046471    -6.467704    0.067794    -32.465263    -48.693638    -11.887373    4.192333    -3.306957    -2.169775    20.457399    41.854839    -6.887648    -0.330325    1.582637    0.582508    
9.857630    9.797436    -37.741627    11.772508    -36.732571    4.387008    1.383362    24.950922    -3.401408    -7.980605    7.010801    -2.605650    17.567596    54.940010    -2.047796    -30.336843    -42.827633    -10.275817    26.907345    4.099343    2.242371    -34.571800    -19.495033    -3.285802    11.279733    -27.523796    -5.284568    29.980341    -27.609819    -2.312665    -19.111734    -1.013398    9.906574    2.860845    -24.385725    17.606441    -4.838774    -7.061790    -9.417006    -37.282562    -10.027903    7.697092    7.398560    -45.026802    2.059725    -10.501828    -10.187709    51.250763    40.561024    24.701273    -51.747795    -0.037888    -6.483274    0.055278    -32.465645    -48.680878    -11.829594    4.204217    -3.335824    -2.193915    20.326010    41.891171    -6.746625    -0.380586    1.601182    0.671009    
9.863596    9.799893    -37.740070    11.753506    -36.717655    4.405367    1.357614    24.949820    -3.386347    -7.905580    6.983785    -2.602764    17.617603    54.967892    -2.076472    -30.263075    -42.866272    -10.248617    26.900036    4.130522    2.229552    -34.559563    -19.451727    -3.280329    11.270402    -27.486353    -5.347310    30.124897    -27.535698    -2.168705    -19.099688    -0.986185    9.915462    2.879486    -24.233742    17.590744    -4.819927    -7.029274    -9.394923    -37.438858    -10.023821    7.753990    7.348480    -45.026543    2.173611    -10.452703    -10.195804    51.168938    40.536530    24.740564    -51.779713    -0.048866    -6.509964    0.071308    -32.475410    -48.665485    -11.781973    4.210120    -3.368518    -2.177966    20.356550    41.931194    -6.712442    -0.129314    1.828960    0.227452    
9.870920    9.800898    -37.741005    11.743932    -36.713268    4.414380    1.312235    24.953842    -3.359438    -7.824583    6.974415    -2.591475    17.603359    54.989468    -2.104005    -30.107082    -42.908680    -10.206669    26.877253    4.140664    2.193267    -34.507854    -19.400833    -3.181755    11.191515    -27.416357    -5.572121    30.183285    -27.413498    -2.014122    -19.096136    -0.933746    9.910627    2.875314    -24.084869    17.592543    -4.783927    -6.960077    -9.403115    -37.475040    -9.983436    7.837889    7.361845    -45.030785    2.192901    -10.461603    -10.198930    51.159378    40.399879    24.911665    -51.666695    -0.006771    -6.614299    0.009888    -32.472012    -48.658398    -11.715813    4.215369    -3.388731    -2.153544    20.277630    41.943272    -6.601761    -0.146965    1.877463    0.258369    
9.879519    9.803297    -37.739922    11.744534    -36.728634    4.421828    1.266816    24.964540    -3.334289    -7.779155    6.985380    -2.578266    17.667803    55.003315    -2.140178    -30.040884    -42.941063    -10.186534    26.902870    4.176503    2.191740    -34.505543    -19.343851    -3.169660    11.181379    -27.373165    -5.685758    30.091118    -27.364601    -2.036297    -19.058134    -0.884240    9.889912    2.811303    -23.804182    17.600466    -4.750744    -7.021278    -9.356945    -37.425564    -9.979105    7.668675    7.361956    -45.011471    2.200771    -10.458977    -10.204393    51.165207    40.428436    24.784403    -51.634315    -0.052186    -6.495062    0.076146    -32.461075    -48.639297    -11.620977    4.223730    -3.408049    -2.121626    20.247591    41.969929    -6.518951    -0.164238    1.869817    0.288757    
9.879697    9.806733    -37.743332    11.708038    -36.724590    4.426179    1.240695    24.949926    -3.323748    -7.717338    7.003609    -2.576242    17.716114    55.013420    -2.179598    -29.972061    -42.978611    -10.177601    26.900614    4.217905    2.217887    -34.467106    -19.276112    -3.182699    11.155493    -27.324570    -5.791041    29.947857    -27.312181    -2.064019    -19.031990    -0.851018    9.903129    2.754008    -23.598228    17.561703    -4.737071    -7.058169    -9.236634    -37.275253    -9.989370    7.641040    7.351304    -45.011234    2.263382    -10.428094    -10.210408    51.126778    40.422138    24.768274    -51.622009    -0.070392    -6.499662    0.102713    -32.430668    -48.623627    -11.547233    4.221428    -3.434541    -2.097449    20.067377    41.990067    -6.341716    -0.209329    1.858186    0.368081    
